ffmpeg started on 2016-12-12 at 02:29:39
Report written to "Output/theora/results/ffmpeg/sintel2500k.log"
Command line:
Tools/ffmpeg/ffmpeg -benchmark -y -i Input/y4m/sintel.y4m -c:v libtheora -b:v 2500k -an Output/theora/encoded/sintel2500k.mkv
ffmpeg version N-82227-gdb23fde Copyright (c) 2000-2016 the FFmpeg developers
  built with gcc 5.4.0 (Ubuntu 5.4.0-6ubuntu1~16.04.2) 20160609
  configuration: --prefix=/home/jaroslav/ffmpeg_build --pkg-config-flags=--static --extra-cflags=-I/home/jaroslav/ffmpeg_build/include --extra-ldflags=-L/home/jaroslav/ffmpeg_build/lib --bindir=/home/jaroslav/bin --enable-gpl --enable-libass --enable-libfdk-aac --enable-libfreetype --enable-libmp3lame --enable-libopus --enable-libtheora --enable-libvorbis --enable-libvpx --enable-libx264 --enable-libx265 --enable-nvenc --enable-libmfx --enable-libxvid --enable-libgsm --enable-libopencore-amrnb --enable-version3 --enable-nonfree
  libavutil      55. 35.100 / 55. 35.100
  libavcodec     57. 66.101 / 57. 66.101
  libavformat    57. 57.100 / 57. 57.100
  libavdevice    57.  2.100 / 57.  2.100
  libavfilter     6. 66.100 /  6. 66.100
  libswscale      4.  3.100 /  4.  3.100
  libswresample   2.  4.100 /  2.  4.100
  libpostproc    54.  2.100 / 54.  2.100
Input #0, yuv4mpegpipe, from 'Input/y4m/sintel.y4m':
  Duration: 00:00:20.83, start: 0.000000, bitrate: 2057307 kb/s
    Stream #0:0: Video: rawvideo (I420 / 0x30323449), yuv420p(progressive), 4096x1744, SAR 1:1 DAR 256:109, 24 fps, 24 tbr, 24 tbn, 24 tbc
Output #0, matroska, to 'Output/theora/encoded/sintel2500k.mkv':
  Metadata:
    encoder         : Lavf57.57.100
    Stream #0:0: Video: theora (libtheora) (theo / 0x6F656874), yuv420p, 4096x1744 [SAR 1:1 DAR 256:109], q=2-31, 2500 kb/s, 24 fps, 1k tbn, 24 tbc
    Metadata:
      encoder         : Lavc57.66.101 libtheora
Stream mapping:
  Stream #0:0 -> #0:0 (rawvideo (native) -> theora (libtheora))
Press [q] to stop, [?] for help
frame=    3 fps=0.0 q=-0.0 size=       4kB time=00:00:00.08 bitrate= 380.5kbits/s speed=0.132x    frame=    5 fps=4.1 q=-0.0 size=       4kB time=00:00:00.16 bitrate= 190.2kbits/s speed=0.137x    frame=    7 fps=3.8 q=-0.0 size=       4kB time=00:00:00.25 bitrate= 127.3kbits/s speed=0.138x    frame=    9 fps=3.7 q=-0.0 size=       4kB time=00:00:00.33 bitrate=  95.7kbits/s speed=0.138x    frame=   11 fps=3.6 q=-0.0 size=       4kB time=00:00:00.41 bitrate=  76.5kbits/s speed=0.138x    frame=   13 fps=3.6 q=-0.0 size=     387kB time=00:00:00.50 bitrate=6324.0kbits/s speed=0.137x    frame=   16 fps=3.6 q=-0.0 size=     387kB time=00:00:00.62 bitrate=5061.3kbits/s speed=0.142x    frame=   18 fps=3.6 q=-0.0 size=     387kB time=00:00:00.70 bitrate=4468.8kbits/s speed=0.141x    frame=   19 fps=2.4 q=-0.0 size=     387kB time=00:00:00.75 bitrate=4218.8kbits/s speed=0.0961x    frame=   20 fps=1.9 q=-0.0 size=     387kB time=00:00:00.79 bitrate=3995.4kbits/s speed=0.0746x    frame=   21 fps=1.5 q=-0.0 size=     387kB time=00:00:00.83 bitrate=3799.0kbits/s speed=0.0614x    frame=   23 fps=1.6 q=-0.0 size=     387kB time=00:00:00.91 bitrate=3451.4kbits/s speed=0.0646x    frame=   25 fps=1.7 q=-0.0 size=     860kB time=00:00:01.00 bitrate=7038.8kbits/s speed=0.0675x    frame=   28 fps=1.8 q=-0.0 size=     860kB time=00:00:01.12 bitrate=6257.4kbits/s speed=0.0723x    frame=   30 fps=1.9 q=-0.0 size=     860kB time=00:00:01.20 bitrate=5827.8kbits/s speed=0.0747x    frame=   32 fps=1.9 q=-0.0 size=     860kB time=00:00:01.29 bitrate=5449.2kbits/s speed=0.077x    frame=   34 fps=2.0 q=-0.0 size=     860kB time=00:00:01.37 bitrate=5120.5kbits/s speed=0.0791x    frame=   36 fps=2.0 q=-0.0 size=     860kB time=00:00:01.45 bitrate=4829.2kbits/s speed=0.081x    frame=   39 fps=2.1 q=-0.0 size=    1071kB time=00:00:01.58 bitrate=5537.4kbits/s speed=0.0844x    frame=   41 fps=2.1 q=-0.0 size=    1071kB time=00:00:01.66 bitrate=5258.6kbits/s speed=0.0862x    frame=   43 fps=2.2 q=-0.0 size=    1071kB time=00:00:01.75 bitrate=5009.3kbits/s speed=0.0878x    frame=   45 fps=2.2 q=-0.0 size=    1071kB time=00:00:01.83 bitrate=4782.6kbits/s speed=0.0893x    frame=   47 fps=2.2 q=-0.0 size=    1071kB time=00:00:01.91 bitrate=4573.2kbits/s speed=0.0908x    frame=   49 fps=2.3 q=-0.0 size=    1202kB time=00:00:02.00 bitrate=4922.5kbits/s speed=0.0921x    frame=   52 fps=2.3 q=-0.0 size=    1202kB time=00:00:02.12 bitrate=4633.0kbits/s speed=0.0947x    frame=   54 fps=2.3 q=-0.0 size=    1202kB time=00:00:02.20 bitrate=4459.0kbits/s speed=0.0959x    frame=   56 fps=2.4 q=-0.0 size=    1202kB time=00:00:02.29 bitrate=4295.6kbits/s speed=0.097x    frame=   58 fps=2.4 q=-0.0 size=    1312kB time=00:00:02.37 bitrate=4522.2kbits/s speed=0.098x    frame=   60 fps=2.4 q=-0.0 size=    1352kB time=00:00:02.45 bitrate=4503.9kbits/s speed=0.0986x    frame=   62 fps=2.4 q=-0.0 size=    1352kB time=00:00:02.54 bitrate=4355.1kbits/s speed=0.0989x    frame=   64 fps=2.4 q=-0.0 size=    1352kB time=00:00:02.62 bitrate=4217.4kbits/s speed=0.0995x    frame=   66 fps=2.4 q=-0.0 size=    1435kB time=00:00:02.70 bitrate=4340.2kbits/s speed= 0.1x    frame=   68 fps=2.4 q=-0.0 size=    1435kB time=00:00:02.79 bitrate=4209.6kbits/s speed= 0.1x    frame=   70 fps=2.5 q=-0.0 size=    1463kB time=00:00:02.87 bitrate=4166.7kbits/s speed=0.101x    frame=   72 fps=2.5 q=-0.0 size=    1490kB time=00:00:02.95 bitrate=4126.4kbits/s speed=0.101x    frame=   74 fps=2.5 q=-0.0 size=    1519kB time=00:00:03.04 bitrate=4088.7kbits/s speed=0.102x    frame=   76 fps=2.5 q=-0.0 size=    1547kB time=00:00:03.12 bitrate=4053.0kbits/s speed=0.103x    frame=   78 fps=2.5 q=-0.0 size=    1571kB time=00:00:03.20 bitrate=4009.8kbits/s speed=0.103x    frame=   80 fps=2.5 q=-0.0 size=    1597kB time=00:00:03.29 bitrate=3973.2kbits/s speed=0.103x    frame=   82 fps=2.5 q=-0.0 size=    1624kB time=00:00:03.37 bitrate=3941.4kbits/s speed=0.103x    frame=   84 fps=2.5 q=-0.0 size=    1653kB time=00:00:03.45 bitrate=3915.9kbits/s speed=0.104x    frame=   86 fps=2.5 q=-0.0 size=    1682kB time=00:00:03.54 bitrate=3889.3kbits/s speed=0.104x    frame=   88 fps=2.5 q=-0.0 size=    1708kB time=00:00:03.62 bitrate=3859.5kbits/s speed=0.104x    frame=   90 fps=2.5 q=-0.0 size=    1739kB time=00:00:03.70 bitrate=3840.5kbits/s speed=0.104x    frame=   92 fps=2.5 q=-0.0 size=    1739kB time=00:00:03.79 bitrate=3755.4kbits/s speed=0.104x    frame=   94 fps=2.5 q=-0.0 size=    1772kB time=00:00:03.87 bitrate=3745.1kbits/s speed=0.105x    frame=   96 fps=2.5 q=-0.0 size=    1772kB time=00:00:03.95 bitrate=3666.6kbits/s speed=0.105x    frame=   98 fps=2.6 q=-0.0 size=    1806kB time=00:00:04.04 bitrate=3658.4kbits/s speed=0.105x    frame=  100 fps=2.6 q=-0.0 size=    1806kB time=00:00:04.12 bitrate=3584.8kbits/s speed=0.106x    frame=  102 fps=2.6 q=-0.0 size=    1871kB time=00:00:04.20 bitrate=3641.3kbits/s speed=0.106x    frame=  104 fps=2.6 q=-0.0 size=    1871kB time=00:00:04.29 bitrate=3570.1kbits/s speed=0.106x    frame=  106 fps=2.6 q=-0.0 size=    1871kB time=00:00:04.37 bitrate=3502.4kbits/s speed=0.107x    frame=  108 fps=2.6 q=-0.0 size=    1937kB time=00:00:04.45 bitrate=3559.3kbits/s speed=0.107x    frame=  110 fps=2.6 q=-0.0 size=    1971kB time=00:00:04.54 bitrate=3554.8kbits/s speed=0.108x    frame=  112 fps=2.6 q=-0.0 size=    1971kB time=00:00:04.62 bitrate=3491.0kbits/s speed=0.108x    frame=  114 fps=2.6 q=-0.0 size=    1971kB time=00:00:04.70 bitrate=3429.5kbits/s speed=0.108x    frame=  116 fps=2.6 q=-0.0 size=    1971kB time=00:00:04.79 bitrate=3369.4kbits/s speed=0.109x    frame=  118 fps=2.6 q=-0.0 size=    2064kB time=00:00:04.87 bitrate=3467.3kbits/s speed=0.109x    frame=  120 fps=2.6 q=-0.0 size=    2064kB time=00:00:04.95 bitrate=3409.3kbits/s speed=0.109x    frame=  122 fps=2.7 q=-0.0 size=    2064kB time=00:00:05.04 bitrate=3352.5kbits/s speed=0.11x    frame=  124 fps=2.7 q=-0.0 size=    2064kB time=00:00:05.12 bitrate=3298.2kbits/s speed=0.11x    frame=  126 fps=2.7 q=-0.0 size=    2192kB time=00:00:05.20 bitrate=3447.7kbits/s speed=0.11x    frame=  128 fps=2.7 q=-0.0 size=    2192kB time=00:00:05.29 bitrate=3393.0kbits/s speed=0.11x    frame=  130 fps=2.7 q=-0.0 size=    2237kB time=00:00:05.37 bitrate=3409.4kbits/s speed=0.11x    frame=  132 fps=2.7 q=-0.0 size=    2237kB time=00:00:05.45 bitrate=3357.5kbits/s speed=0.11x    frame=  134 fps=2.7 q=-0.0 size=    2293kB time=00:00:05.54 bitrate=3388.4kbits/s speed=0.11x    frame=  136 fps=2.7 q=-0.0 size=    2293kB time=00:00:05.62 bitrate=3338.4kbits/s speed=0.11x    frame=  138 fps=2.7 q=-0.0 size=    2293kB time=00:00:05.70 bitrate=3289.8kbits/s speed=0.11x    frame=  140 fps=2.7 q=-0.0 size=    2347kB time=00:00:05.79 bitrate=3319.5kbits/s speed=0.11x    frame=  142 fps=2.7 q=-0.0 size=    2347kB time=00:00:05.87 bitrate=3272.6kbits/s speed=0.11x    frame=  144 fps=2.7 q=-0.0 size=    2347kB time=00:00:05.95 bitrate=3227.0kbits/s speed=0.11x    frame=  146 fps=2.7 q=-0.0 size=    2347kB time=00:00:06.04 bitrate=3182.2kbits/s speed=0.111x    frame=  148 fps=2.7 q=-0.0 size=    2347kB time=00:00:06.12 bitrate=3139.0kbits/s speed=0.111x    frame=  150 fps=2.7 q=-0.0 size=    2347kB time=00:00:06.20 bitrate=3097.1kbits/s speed=0.111x    frame=  152 fps=2.7 q=-0.0 size=    2347kB time=00:00:06.29 bitrate=3055.7kbits/s speed=0.112x    frame=  155 fps=2.7 q=-0.0 size=    2548kB time=00:00:06.41 bitrate=3251.8kbits/s speed=0.112x    frame=  157 fps=2.7 q=-0.0 size=    2602kB time=00:00:06.50 bitrate=3278.7kbits/s speed=0.113x    frame=  159 fps=2.7 q=-0.0 size=    2602kB time=00:00:06.58 bitrate=3237.4kbits/s speed=0.112x    frame=  161 fps=2.7 q=-0.0 size=    2602kB time=00:00:06.66 bitrate=3196.6kbits/s speed=0.113x    frame=  163 fps=2.7 q=-0.0 size=    2663kB time=00:00:06.75 bitrate=3231.5kbits/s speed=0.113x    frame=  165 fps=2.7 q=-0.0 size=    2663kB time=00:00:06.83 bitrate=3192.2kbits/s speed=0.113x    frame=  167 fps=2.7 q=-0.0 size=    2697kB time=00:00:06.91 bitrate=3194.2kbits/s speed=0.113x    frame=  169 fps=2.7 q=-0.0 size=    2732kB time=00:00:07.00 bitrate=3197.2kbits/s speed=0.113x    frame=  171 fps=2.7 q=-0.0 size=    2768kB time=00:00:07.08 bitrate=3201.0kbits/s speed=0.113x    frame=  173 fps=2.7 q=-0.0 size=    2802kB time=00:00:07.16 bitrate=3202.4kbits/s speed=0.113x    frame=  175 fps=2.7 q=-0.0 size=    2802kB time=00:00:07.25 bitrate=3165.7kbits/s speed=0.113x    frame=  177 fps=2.7 q=-0.0 size=    2837kB time=00:00:07.33 bitrate=3169.4kbits/s speed=0.113x    frame=  179 fps=2.7 q=-0.0 size=    2837kB time=00:00:07.41 bitrate=3133.5kbits/s speed=0.113x    frame=  181 fps=2.7 q=-0.0 size=    2870kB time=00:00:07.50 bitrate=3134.7kbits/s speed=0.113x    frame=  183 fps=2.7 q=-0.0 size=    2903kB time=00:00:07.58 bitrate=3136.1kbits/s speed=0.113x    frame=  185 fps=2.7 q=-0.0 size=    2903kB time=00:00:07.66 bitrate=3101.8kbits/s speed=0.113x    frame=  187 fps=2.7 q=-0.0 size=    2938kB time=00:00:07.75 bitrate=3105.1kbits/s speed=0.113x    frame=  189 fps=2.7 q=-0.0 size=    2938kB time=00:00:07.83 bitrate=3072.2kbits/s speed=0.113x    frame=  191 fps=2.7 q=-0.0 size=    2938kB time=00:00:07.91 bitrate=3039.6kbits/s speed=0.114x    frame=  193 fps=2.7 q=-0.0 size=    2938kB time=00:00:08.00 bitrate=3008.1kbits/s speed=0.114x    frame=  195 fps=2.7 q=-0.0 size=    3049kB time=00:00:08.08 bitrate=3089.3kbits/s speed=0.114x    frame=  197 fps=2.8 q=-0.0 size=    3079kB time=00:00:08.16 bitrate=3088.2kbits/s speed=0.114x    frame=  199 fps=2.8 q=-0.0 size=    3111kB time=00:00:08.25 bitrate=3088.3kbits/s speed=0.114x    frame=  201 fps=2.8 q=-0.0 size=    3143kB time=00:00:08.33 bitrate=3089.5kbits/s speed=0.114x    frame=  203 fps=2.8 q=-0.0 size=    3181kB time=00:00:08.41 bitrate=3095.9kbits/s speed=0.114x    frame=  205 fps=2.8 q=-0.0 size=    3181kB time=00:00:08.50 bitrate=3065.7kbits/s speed=0.114x    frame=  207 fps=2.8 q=-0.0 size=    3219kB time=00:00:08.58 bitrate=3071.7kbits/s speed=0.114x    frame=  209 fps=2.8 q=-0.0 size=    3219kB time=00:00:08.66 bitrate=3042.0kbits/s speed=0.114x    frame=  211 fps=2.8 q=-0.0 size=    3259kB time=00:00:08.75 bitrate=3050.7kbits/s speed=0.114x    frame=  213 fps=2.8 q=-0.0 size=    3259kB time=00:00:08.83 bitrate=3022.0kbits/s speed=0.114x    frame=  215 fps=2.8 q=-0.0 size=    3259kB time=00:00:08.91 bitrate=2993.6kbits/s speed=0.114x    frame=  217 fps=2.8 q=-0.0 size=    3259kB time=00:00:09.00 bitrate=2966.0kbits/s speed=0.115x    frame=  219 fps=2.8 q=-0.0 size=    3259kB time=00:00:09.08 bitrate=2938.9kbits/s speed=0.115x    frame=  221 fps=2.8 q=-0.0 size=    3259kB time=00:00:09.16 bitrate=2911.9kbits/s speed=0.115x    frame=  223 fps=2.8 q=-0.0 size=    3259kB time=00:00:09.25 bitrate=2885.8kbits/s speed=0.115x    frame=  226 fps=2.8 q=-0.0 size=    3431kB time=00:00:09.37 bitrate=2997.5kbits/s speed=0.116x    frame=  228 fps=2.8 q=-0.0 size=    3431kB time=00:00:09.45 bitrate=2971.2kbits/s speed=0.116x    frame=  230 fps=2.8 q=-0.0 size=    3431kB time=00:00:09.54 bitrate=2945.1kbits/s speed=0.116x    frame=  232 fps=2.8 q=-0.0 size=    3431kB time=00:00:09.62 bitrate=2919.7kbits/s speed=0.116x    frame=  234 fps=2.8 q=-0.0 size=    3431kB time=00:00:09.70 bitrate=2894.7kbits/s speed=0.116x    frame=  236 fps=2.8 q=-0.0 size=    3563kB time=00:00:09.79 bitrate=2980.2kbits/s speed=0.116x    frame=  239 fps=2.8 q=-0.0 size=    3563kB time=00:00:09.91 bitrate=2942.6kbits/s speed=0.117x    frame=  241 fps=2.8 q=-0.0 size=    3563kB time=00:00:10.00 bitrate=2918.2kbits/s speed=0.117x    frame=  243 fps=2.8 q=-0.0 size=    3563kB time=00:00:10.08 bitrate=2894.2kbits/s speed=0.117x    frame=  245 fps=2.8 q=-0.0 size=    3661kB time=00:00:10.16 bitrate=2949.9kbits/s speed=0.117x    frame=  247 fps=2.8 q=-0.0 size=    3661kB time=00:00:10.25 bitrate=2926.0kbits/s speed=0.117x    frame=  249 fps=2.8 q=-0.0 size=    3717kB time=00:00:10.33 bitrate=2946.3kbits/s speed=0.117x    frame=  251 fps=2.8 q=-0.0 size=    3717kB time=00:00:10.41 bitrate=2922.5kbits/s speed=0.117x    frame=  253 fps=2.8 q=-0.0 size=    3717kB time=00:00:10.50 bitrate=2899.4kbits/s speed=0.117x    frame=  255 fps=2.8 q=-0.0 size=    3717kB time=00:00:10.58 bitrate=2876.7kbits/s speed=0.118x    frame=  257 fps=2.8 q=-0.0 size=    3717kB time=00:00:10.66 bitrate=2854.1kbits/s speed=0.118x    frame=  259 fps=2.8 q=-0.0 size=    3717kB time=00:00:10.75 bitrate=2832.0kbits/s speed=0.118x    frame=  261 fps=2.8 q=-0.0 size=    3918kB time=00:00:10.83 bitrate=2962.5kbits/s speed=0.118x    frame=  264 fps=2.8 q=-0.0 size=    3918kB time=00:00:10.95 bitrate=2928.7kbits/s speed=0.118x    frame=  266 fps=2.9 q=-0.0 size=    3918kB time=00:00:11.04 bitrate=2906.5kbits/s speed=0.118x    frame=  268 fps=2.9 q=-0.0 size=    3918kB time=00:00:11.12 bitrate=2884.8kbits/s speed=0.119x    frame=  270 fps=2.9 q=-0.0 size=    3918kB time=00:00:11.20 bitrate=2863.4kbits/s speed=0.119x    frame=  272 fps=2.9 q=-0.0 size=    3918kB time=00:00:11.29 bitrate=2842.1kbits/s speed=0.119x    frame=  275 fps=2.9 q=-0.0 size=    4073kB time=00:00:11.41 bitrate=2922.5kbits/s speed=0.119x    frame=  277 fps=2.9 q=-0.0 size=    4073kB time=00:00:11.50 bitrate=2901.4kbits/s speed=0.119x    frame=  279 fps=2.9 q=-0.0 size=    4073kB time=00:00:11.58 bitrate=2880.6kbits/s speed=0.12x    frame=  281 fps=2.9 q=-0.0 size=    4073kB time=00:00:11.66 bitrate=2859.9kbits/s speed=0.12x    frame=  283 fps=2.9 q=-0.0 size=    4073kB time=00:00:11.75 bitrate=2839.7kbits/s speed=0.12x    frame=  285 fps=2.9 q=-0.0 size=    4224kB time=00:00:11.83 bitrate=2923.8kbits/s speed=0.12x    frame=  288 fps=2.9 q=-0.0 size=    4224kB time=00:00:11.95 bitrate=2893.3kbits/s speed=0.12x    frame=  290 fps=2.9 q=-0.0 size=    4224kB time=00:00:12.04 bitrate=2873.1kbits/s speed=0.12x    frame=  292 fps=2.9 q=-0.0 size=    4224kB time=00:00:12.12 bitrate=2853.4kbits/s speed=0.121x    frame=  294 fps=2.9 q=-0.0 size=    4224kB time=00:00:12.20 bitrate=2834.0kbits/s speed=0.121x    frame=  296 fps=2.9 q=-0.0 size=    4224kB time=00:00:12.29 bitrate=2814.7kbits/s speed=0.121x    frame=  299 fps=2.9 q=-0.0 size=    4380kB time=00:00:12.41 bitrate=2889.1kbits/s speed=0.121x    frame=  301 fps=2.9 q=-0.0 size=    4380kB time=00:00:12.50 bitrate=2870.0kbits/s speed=0.121x    frame=  303 fps=2.9 q=-0.0 size=    4380kB time=00:00:12.58 bitrate=2851.0kbits/s speed=0.122x    frame=  305 fps=2.9 q=-0.0 size=    4380kB time=00:00:12.66 bitrate=2832.1kbits/s speed=0.122x    frame=  307 fps=2.9 q=-0.0 size=    4380kB time=00:00:12.75 bitrate=2813.7kbits/s speed=0.122x    frame=  309 fps=2.9 q=-0.0 size=    4531kB time=00:00:12.83 bitrate=2891.9kbits/s speed=0.122x    frame=  312 fps=2.9 q=-0.0 size=    4531kB time=00:00:12.95 bitrate=2864.0kbits/s speed=0.122x    frame=  314 fps=2.9 q=-0.0 size=    4531kB time=00:00:13.04 bitrate=2845.5kbits/s speed=0.122x    frame=  316 fps=3.0 q=-0.0 size=    4531kB time=00:00:13.12 bitrate=2827.5kbits/s speed=0.123x    frame=  318 fps=3.0 q=-0.0 size=    4531kB time=00:00:13.20 bitrate=2809.8kbits/s speed=0.123x    frame=  320 fps=3.0 q=-0.0 size=    4531kB time=00:00:13.29 bitrate=2792.0kbits/s speed=0.123x    frame=  323 fps=3.0 q=-0.0 size=    4682kB time=00:00:13.41 bitrate=2858.2kbits/s speed=0.123x    frame=  325 fps=3.0 q=-0.0 size=    4682kB time=00:00:13.50 bitrate=2840.6kbits/s speed=0.123x    frame=  327 fps=3.0 q=-0.0 size=    4682kB time=00:00:13.58 bitrate=2823.3kbits/s speed=0.123x    frame=  329 fps=3.0 q=-0.0 size=    4682kB time=00:00:13.66 bitrate=2805.9kbits/s speed=0.124x    frame=  331 fps=3.0 q=-0.0 size=    4682kB time=00:00:13.75 bitrate=2789.0kbits/s speed=0.124x    frame=  333 fps=3.0 q=-0.0 size=    4837kB time=00:00:13.83 bitrate=2864.2kbits/s speed=0.124x    frame=  336 fps=3.0 q=-0.0 size=    4837kB time=00:00:13.95 bitrate=2838.5kbits/s speed=0.124x    frame=  338 fps=3.0 q=-0.0 size=    4837kB time=00:00:14.04 bitrate=2821.6kbits/s speed=0.124x    frame=  340 fps=3.0 q=-0.0 size=    4837kB time=00:00:14.12 bitrate=2805.0kbits/s speed=0.124x    frame=  342 fps=3.0 q=-0.0 size=    4837kB time=00:00:14.20 bitrate=2788.6kbits/s speed=0.125x    frame=  344 fps=3.0 q=-0.0 size=    4837kB time=00:00:14.29 bitrate=2772.2kbits/s speed=0.125x    frame=  347 fps=3.0 q=-0.0 size=    4984kB time=00:00:14.41 bitrate=2832.0kbits/s speed=0.125x    frame=  349 fps=3.0 q=-0.0 size=    4984kB time=00:00:14.50 bitrate=2815.8kbits/s speed=0.125x    frame=  351 fps=3.0 q=-0.0 size=    4984kB time=00:00:14.58 bitrate=2799.8kbits/s speed=0.125x    frame=  353 fps=3.0 q=-0.0 size=    4984kB time=00:00:14.66 bitrate=2783.7kbits/s speed=0.125x    frame=  355 fps=3.0 q=-0.0 size=    4984kB time=00:00:14.75 bitrate=2768.1kbits/s speed=0.125x    frame=  357 fps=3.0 q=-0.0 size=    5142kB time=00:00:14.83 bitrate=2839.5kbits/s speed=0.126x    frame=  360 fps=3.0 q=-0.0 size=    5142kB time=00:00:14.95 bitrate=2815.8kbits/s speed=0.126x    frame=  362 fps=3.0 q=-0.0 size=    5142kB time=00:00:15.04 bitrate=2800.1kbits/s speed=0.126x    frame=  364 fps=3.0 q=-0.0 size=    5207kB time=00:00:15.12 bitrate=2819.8kbits/s speed=0.126x    frame=  366 fps=3.0 q=-0.0 size=    5207kB time=00:00:15.20 bitrate=2804.5kbits/s speed=0.126x    frame=  368 fps=3.0 q=-0.0 size=    5207kB time=00:00:15.29 bitrate=2789.0kbits/s speed=0.126x    frame=  370 fps=3.0 q=-0.0 size=    5207kB time=00:00:15.37 bitrate=2774.0kbits/s speed=0.126x    frame=  372 fps=3.0 q=-0.0 size=    5207kB time=00:00:15.45 bitrate=2759.1kbits/s speed=0.126x    frame=  374 fps=3.0 q=-0.0 size=    5207kB time=00:00:15.54 bitrate=2744.2kbits/s speed=0.126x    frame=  376 fps=3.0 q=-0.0 size=    5370kB time=00:00:15.62 bitrate=2815.2kbits/s speed=0.126x    frame=  379 fps=3.0 q=-0.0 size=    5370kB time=00:00:15.75 bitrate=2792.9kbits/s speed=0.127x    frame=  381 fps=3.1 q=-0.0 size=    5370kB time=00:00:15.83 bitrate=2778.3kbits/s speed=0.127x    frame=  383 fps=3.1 q=-0.0 size=    5370kB time=00:00:15.91 bitrate=2763.6kbits/s speed=0.127x    frame=  385 fps=3.1 q=-0.0 size=    5370kB time=00:00:16.00 bitrate=2749.3kbits/s speed=0.127x    frame=  387 fps=3.1 q=-0.0 size=    5370kB time=00:00:16.08 bitrate=2735.1kbits/s speed=0.127x    frame=  390 fps=3.1 q=-0.0 size=    5535kB time=00:00:16.20 bitrate=2797.3kbits/s speed=0.127x    frame=  392 fps=3.1 q=-0.0 size=    5535kB time=00:00:16.29 bitrate=2782.9kbits/s speed=0.128x    frame=  394 fps=3.1 q=-0.0 size=    5535kB time=00:00:16.37 bitrate=2768.8kbits/s speed=0.128x    frame=  396 fps=3.1 q=-0.0 size=    5535kB time=00:00:16.45 bitrate=2754.9kbits/s speed=0.128x    frame=  398 fps=3.1 q=-0.0 size=    5535kB time=00:00:16.54 bitrate=2740.9kbits/s speed=0.128x    frame=  400 fps=3.1 q=-0.0 size=    5674kB time=00:00:16.62 bitrate=2795.8kbits/s speed=0.128x    frame=  403 fps=3.1 q=-0.0 size=    5674kB time=00:00:16.75 bitrate=2775.0kbits/s speed=0.128x    frame=  405 fps=3.1 q=-0.0 size=    5674kB time=00:00:16.83 bitrate=2761.3kbits/s speed=0.128x    frame=  407 fps=3.1 q=-0.0 size=    5674kB time=00:00:16.91 bitrate=2747.6kbits/s speed=0.128x    frame=  409 fps=3.1 q=-0.0 size=    5674kB time=00:00:17.00 bitrate=2734.2kbits/s speed=0.128x    frame=  411 fps=3.1 q=-0.0 size=    5674kB time=00:00:17.08 bitrate=2720.9kbits/s speed=0.128x    frame=  414 fps=3.1 q=-0.0 size=    5827kB time=00:00:17.20 bitrate=2773.8kbits/s speed=0.129x    frame=  416 fps=3.1 q=-0.0 size=    5827kB time=00:00:17.29 bitrate=2760.3kbits/s speed=0.129x    frame=  418 fps=3.1 q=-0.0 size=    5827kB time=00:00:17.37 bitrate=2747.1kbits/s speed=0.129x    frame=  420 fps=3.1 q=-0.0 size=    5927kB time=00:00:17.45 bitrate=2780.9kbits/s speed=0.129x    frame=  422 fps=3.1 q=-0.0 size=    5927kB time=00:00:17.54 bitrate=2767.6kbits/s speed=0.129x    frame=  424 fps=3.1 q=-0.0 size=    5927kB time=00:00:17.62 bitrate=2754.6kbits/s speed=0.129x    frame=  426 fps=3.1 q=-0.0 size=    5927kB time=00:00:17.70 bitrate=2741.7kbits/s speed=0.129x    frame=  428 fps=3.1 q=-0.0 size=    5927kB time=00:00:17.79 bitrate=2728.7kbits/s speed=0.129x    frame=  430 fps=3.1 q=-0.0 size=    5927kB time=00:00:17.87 bitrate=2716.1kbits/s speed=0.129x    frame=  432 fps=3.1 q=-0.0 size=    5927kB time=00:00:17.95 bitrate=2703.5kbits/s speed=0.129x    frame=  434 fps=3.1 q=-0.0 size=    6122kB time=00:00:18.04 bitrate=2779.5kbits/s speed=0.129x    frame=  437 fps=3.1 q=-0.0 size=    6122kB time=00:00:18.16 bitrate=2760.4kbits/s speed=0.129x    frame=  439 fps=3.1 q=-0.0 size=    6122kB time=00:00:18.25 bitrate=2747.8kbits/s speed=0.129x    frame=  441 fps=3.1 q=-0.0 size=    6122kB time=00:00:18.33 bitrate=2735.4kbits/s speed=0.129x    frame=  443 fps=3.1 q=-0.0 size=    6122kB time=00:00:18.41 bitrate=2722.9kbits/s speed=0.129x    frame=  445 fps=3.1 q=-0.0 size=    6122kB time=00:00:18.50 bitrate=2710.7kbits/s speed=0.129x    frame=  448 fps=3.1 q=-0.0 size=    6276kB time=00:00:18.62 bitrate=2760.4kbits/s speed=0.13x    frame=  450 fps=3.1 q=-0.0 size=    6276kB time=00:00:18.70 bitrate=2748.2kbits/s speed=0.13x    frame=  452 fps=3.1 q=-0.0 size=    6276kB time=00:00:18.79 bitrate=2735.9kbits/s speed=0.13x    frame=  454 fps=3.1 q=-0.0 size=    6276kB time=00:00:18.87 bitrate=2723.9kbits/s speed=0.13x    frame=  456 fps=3.1 q=-0.0 size=    6276kB time=00:00:18.95 bitrate=2711.9kbits/s speed=0.13x    frame=  458 fps=3.1 q=-0.0 size=    6426kB time=00:00:19.04 bitrate=2764.5kbits/s speed=0.13x    frame=  461 fps=3.1 q=-0.0 size=    6426kB time=00:00:19.16 bitrate=2746.4kbits/s speed=0.13x    frame=  463 fps=3.1 q=-0.0 size=    6426kB time=00:00:19.25 bitrate=2734.6kbits/s speed=0.13x    frame=  465 fps=3.1 q=-0.0 size=    6426kB time=00:00:19.33 bitrate=2722.9kbits/s speed=0.13x    frame=  467 fps=3.1 q=-0.0 size=    6426kB time=00:00:19.41 bitrate=2711.1kbits/s speed=0.13x    frame=  469 fps=3.1 q=-0.0 size=    6426kB time=00:00:19.50 bitrate=2699.5kbits/s speed=0.13x    frame=  472 fps=3.1 q=-0.0 size=    6582kB time=00:00:19.62 bitrate=2747.4kbits/s speed=0.131x    frame=  474 fps=3.1 q=-0.0 size=    6582kB time=00:00:19.70 bitrate=2735.9kbits/s speed=0.131x    frame=  476 fps=3.1 q=-0.0 size=    6582kB time=00:00:19.79 bitrate=2724.3kbits/s speed=0.131x    frame=  478 fps=3.1 q=-0.0 size=    6582kB time=00:00:19.87 bitrate=2712.9kbits/s speed=0.131x    frame=  480 fps=3.1 q=-0.0 size=    6582kB time=00:00:19.95 bitrate=2701.6kbits/s speed=0.131x    frame=  482 fps=3.1 q=-0.0 size=    6730kB time=00:00:20.04 bitrate=2750.8kbits/s speed=0.131x    frame=  485 fps=3.2 q=-0.0 size=    6730kB time=00:00:20.16 bitrate=2733.8kbits/s speed=0.131x    frame=  487 fps=3.2 q=-0.0 size=    6730kB time=00:00:20.25 bitrate=2722.6kbits/s speed=0.131x    frame=  489 fps=3.2 q=-0.0 size=    6730kB time=00:00:20.33 bitrate=2711.5kbits/s speed=0.131x    frame=  491 fps=3.2 q=-0.0 size=    6730kB time=00:00:20.41 bitrate=2700.3kbits/s speed=0.131x    frame=  493 fps=3.2 q=-0.0 size=    6730kB time=00:00:20.50 bitrate=2689.4kbits/s speed=0.131x    frame=  496 fps=3.2 q=-0.0 size=    6882kB time=00:00:20.62 bitrate=2733.3kbits/s speed=0.132x    frame=  498 fps=3.2 q=-0.0 size=    6882kB time=00:00:20.70 bitrate=2722.4kbits/s speed=0.132x    frame=  500 fps=3.2 q=-0.0 size=    6882kB time=00:00:20.79 bitrate=2711.4kbits/s speed=0.132x    frame=  500 fps=3.2 q=-0.0 Lsize=    6974kB time=00:00:20.79 bitrate=2747.7kbits/s speed=0.132x    
video:6963kB audio:0kB subtitle:0kB other streams:0kB global headers:3kB muxing overhead: 0.158603%
bench: utime=140.080s
bench: maxrss=220392kB
